<?xml version="1.0"?><svg width="1600" height="1200" xmlns="http://www.w3.org/2000/svg">
 <title>brain</title>
 <metadata id="metadata7">image/svg+xml</metadata>
 <g>
  <title>Layer 1</title>
  <g id="layer1"/>
  <path id="svg_2" d="m330.562042,535.775513c18.118011,46.421021 -6.424011,92.987 16.48999,138.780029c10.447998,51.421021 38.60202,97.041992 45.587006,149.666016c6.838989,44.816956 30.830994,83.605957 45.071991,126.717957c33.421997,103.492981 125.233063,186.672913 230.633026,212.03302c51.345032,16.619995 107.473999,-15.400024 86.632019,-73.190063c5.419983,-24.26001 30.25,-42.669922 20.494995,-4.23999c-25.185974,63.050049 48.885986,79.01001 95.422974,68.689941c57.585022,15.980103 85.061035,-38.539917 129.050049,-54.679932c44.779907,-27.820068 77.559937,-64.099976 98.109863,-114.644958c31.880005,-37.404968 42.330078,-88.28302 48.570068,-135.807983c-0.150024,-59.083008 53.650024,-103.611023 59.650024,-163.442017c9.109985,-46.895996 5,-97.104004 16.349976,-142.603027c23.02002,-43.748932 11.829956,-98.609924 -14.660034,-138.267944c-11.679932,-48.811981 -36.419922,-97.175995 -70.400024,-134.997986c-39.22998,-44.292999 -68.949951,-96.160995 -109.140015,-139.794922c-54.549866,-30.985397 -103.292908,-88.799599 -172.102905,-82.278702c-41.865967,10.798302 -61.134949,71.980499 -60.477966,111.382614c20.148987,21.174988 -12.353027,100.03598 -13.908997,39.468994c-5.093994,-53.660004 -7.723022,-110.457108 -37.419006,-157.331387c-47.91803,-20.323719 -112.192993,13.832684 -141.624023,52.302982c-51.198975,8.709496 -80.110962,54.349419 -111.011017,91.603416c-33.708984,35.876007 -69.207001,70.66098 -85.789001,118.529999c-21.419006,48.761017 -53.044983,93.471008 -63.777008,146.731995c-7.125,27.855011 -12.208984,56.527985 -11.751984,85.371948zm9.04599,1.455994c-4.552002,-29.556976 25.867004,-65.929932 15.774994,-85.800934c11.719025,-39.03299 34.651001,-89.915009 59.979004,-116.859985c47.166016,3.579987 -29.572998,-18.621002 5.046021,-38.88501c14.970978,-11.83902 42.246979,-9.430023 14.395996,-23.054016c2.858002,-12.803986 52.697998,-34.988007 19.570007,-34.007996c26.71698,-31.664001 70.173004,-37.876999 79.402008,-70.425018c27.338013,-30.100998 58.564026,-8.139984 71.298035,20.604004c-9.343018,21.048004 -29.52301,34.820007 -6.611023,50.223999c-1.487,25.292023 -53.762024,73.363007 -25.606018,75.821014c23.074036,-38.915985 47.554016,-78.733002 53.94104,-116.36499c15.054993,-12.187012 55.727966,-40.008041 12.492981,-19.359009c-43.255005,13.298981 -63.455994,-44.208008 -15.578003,-51.771011c34.671021,-15.581497 26.185974,10.145996 13.700012,14.018021c45.848999,22.729004 13.497009,-61.933823 57.021973,-24.535721c44.380005,3.609299 -41.440979,-36.4776 9.14502,-35.622002c37.935974,-4.232903 35.778015,57.901711 26.138977,63.99868c-20.299988,-11.137985 -83.705994,-7.865982 -33.333008,8.965042c22.029053,10.511993 71.786011,34.950989 26.960999,54.191986c-13.787964,17.433014 45.140015,26.677002 9.106018,52.997009c-47.904968,20.947998 -113.40802,27.348999 -132.695007,87.929016c-8.549988,25.298981 7.890991,98.336975 -39.812012,61.493988c-28.415955,-31.97699 -103.085999,-0.446014 -97.027008,-57.126007c-17.817993,23.490997 -51.783997,41.269012 -67.17099,68.554993c-24.90802,24.38501 38.55899,30.983002 21.644989,-4.89798c27.575012,-44.522003 101.854034,-14.03302 138.069061,10.434998c26.970947,6.46698 20.780945,92.941956 39.536987,35.078003c5.070984,-42.769012 73.546997,-28.572998 29.000977,-68.057007c-39.745972,-42.73999 15.973999,-95.273987 60.267029,-99.514008c38.573975,-20.886993 102.503967,-6.154999 64.531982,35.651001c-25.801025,-24.35498 -43.986023,-4.432983 -51.138,16.843018c-34.854004,-42.074005 7.58197,86.171997 32.573975,23.056c37.348999,-16.615021 23.878052,61.668976 -10.052002,59.837982c-27.414978,43.466003 -91.619995,27.167999 -120.909973,70.248962c-40.565979,14.865021 -61.76001,-22.589966 -72.210022,-49.912964c-20.690033,40.692017 -77.720001,68.567963 -87.193024,121.013947c-0.973999,17.547058 -17.714996,92.299011 8.729004,57.788025c1.376007,-48.69397 13.028015,-111.004028 66.59903,-127.462982c39.262024,11.527985 90.598022,47.192963 121.588013,-6.062012c41.104004,-21.708984 94.934021,-26.790985 133.515991,-21.52597c5.794983,47.086975 -11.796021,95.530945 -3.119019,143.184998c-32.858948,15.066956 -45.056946,47.844971 -50.311951,81.243958c17.977966,1.098022 64.475952,-35.401001 60.97998,15.570007c-7.317993,20.328979 -2.627014,47.621033 -3.388977,58.640015c-10.193054,30.791016 6.873962,106.289978 -42.26001,117.744019c-31.64502,-31.601013 -53.455017,64.886963 -10.147034,23.982971c63.881042,-28.468994 30.946045,77.096008 18.987,107.890991c-15.553955,20.859009 14.796997,103.398926 -35.432007,95.859009c-20.817993,-37.540039 25.938049,-105.224976 -44.110962,-105.080078c6.156982,14.559082 14.437988,49.640015 -9.06604,61.599976c38.759033,12.840088 28.292053,50.609985 -8.572998,45.300049c-26.750977,13.170044 -30.753967,-16.060059 -23.052979,-31.900024c-12.677979,-31.339966 -52.580994,-64.893921 -10.708984,-88.604919c28.408997,-24.098999 -8.006042,-48.93103 26.373962,-69.773987c37.473999,-47.505005 -14.528992,-84.356995 -36.819946,-122.163025c-17.521057,-15.08197 -19.807007,-116.817993 -30.588013,-57.083008c2.161011,18.799011 -11.513,43.517029 6.802979,56.815002c19.093018,38.35199 58.721008,80.507019 35.522034,124.747009c-23.841003,55.416992 -42.686035,-58.89801 -54.458008,-15.526001c24.240967,38.445007 -74.390045,49.942017 -11.095032,57.007996c24.385986,-9.98999 71.528992,-12.084961 32.582031,22.47699c-66.890991,-3.36499 23.210999,72.843933 0.235962,90.313904c-14.570984,-32.279907 -85.83902,-44.209961 -62.276978,-83.260864c-21.174042,-9.515991 -47.192047,-9.343994 -52.842041,-36.541992c-17.531006,-24.151001 -25.36499,-52.723022 -21.307007,-73.707031c-54.457977,-3.719971 -0.957001,-42.52002 -2.588989,-59.370972c-37.368988,-0.472046 -51.48999,-35.125 -36.497986,-58.959045c-18.907013,-38.378967 -64.484009,-79.284973 -39.764008,-126.930969c-48.304016,-33.367981 14.59198,-83.346008 6.675995,-126.558044c-2.027008,-16.024933 -22.096008,13.871033 -30.445007,15.578003zm57.606018,126.649048c29.491974,36.161011 14.964996,-32.546997 0,0zm13.725983,184.880981c2.281006,-16.122986 2.705017,16.082031 0,0zm36.186005,-137.567017c29.102997,20.67804 11.942993,41.666016 9.670013,68.835022c2.811981,36.291992 15.873993,26.400024 18.820984,-2.703979c7.14502,-53.929993 71.552032,-65.085022 106.142059,-97.877014c22.657959,-46.169006 74.768982,-69.853027 92.477966,-119.692017c20.786011,-47.122009 96.138,56.319031 60.656982,-13.197998c7.684021,-55.800995 -67.203003,-10.692993 -85.987,12.028992c-25.021973,26.856995 -57.802979,52.590027 -90.237976,58.002014c9.461975,49.559021 -49.979004,104.312012 -100.430023,94.216003l-5.783997,-0.22998l-5.32901,0.618958l0,0zm1.975006,-259.228943c22.156982,15.464996 15.074005,-23.631012 0,0zm11.75,447.124939c3.317993,54.515015 49.078033,-62.613953 1.511993,-9.497986l-1.511993,9.497986l0,0zm4.158997,-53.448975c17.833008,32.591003 12.958008,-26.317017 0,0zm2.808014,-497.969971c29.753998,-5.083008 48.773987,-65.515991 26.813995,-80.368011c-52.639008,-2.460022 10.888,46.065002 -24.278015,72.026001l-2.53598,8.34201l0,0zm4.263977,-107.622009c32.993988,-12.163986 26.384003,-26.648026 0,0zm8.630005,729.227966c31.227051,10.851013 18.29599,-30.034973 0,0zm16.636993,-330.97699c14.326019,21.921021 74.88205,-33 30.156036,-47.719971c-30.449036,-43.059998 -15.948975,0.506958 -9.223999,20.447998c-7.533997,8.544006 -18.720001,15.303955 -20.932037,27.271973zm1.35202,273.890015c31.329041,28.320984 32.489014,-31.910034 0,0zm4.990997,-78.921997c23.466034,9.610962 81.252045,3.601013 28.13504,-15.846008c-20.39502,-14.801025 -22.10199,-1.507996 -28.13504,15.846008zm17.053009,-621.085999c26.327026,-5.43399 9.319031,-15.525986 0,0zm36.186035,-81.938507c7.138977,-12.080704 9.283997,7.326508 0,0zm30.674988,-12.685898c27.453003,-26.751198 33.580994,10.386505 0,0zm40.760986,-28.283203c23.242004,-20.062096 14.890015,15.615799 0,0zm2.390991,588.748611c-4.562012,46.899963 35.440002,79.059998 49.704041,112.716003c19.23999,3.065979 57.323975,88.276001 52.383972,44.703003c-15.575989,-50.613037 -52.281006,-86.411011 -79.492004,-128.084045c42.593994,-14.024963 3.984009,-103.67395 -20.95697,-47.789001l-1.27301,8.452026l-0.366028,10.002014l0,0zm29.324036,-429.76004c25.664001,29.307037 23.199951,-27.769958 0,0zm7.277954,733.805023c23.471008,30.218933 95.596008,-22.539001 29.978027,-6.80603c-9.643982,2.966003 -21.622986,0.362 -29.978027,6.80603zm36.602051,-557.138977c14.546997,4.792999 5.916992,-5.687988 0,0zm43.880981,-66.548004c11.240967,-10.073975 10.708008,14.831024 0,0zm42.841003,213.68399c15.398987,-50.680054 2.800964,-102.161987 5.726013,-154.296967c-5.473022,-65.279022 68.013,-62.859009 98.113953,-21.462006c51.124023,10.261993 3.811035,-42.522003 -14.537964,-57.623016c-24.664001,-9.569 -66.28302,14.657013 -82.911987,-17.447998c-14.396057,-44.679993 9.19397,-111.515991 62.833984,-72.322998c19.784973,6.64801 83.532959,47.63501 46.714966,4.654999c-47.753967,-50.191025 38.30603,-16.067993 65.007996,-13.984009c23.28302,6.450012 70.112976,-3.592987 69.702942,28.63501c-26.549866,-17.710999 26.400024,43.011017 -6.849976,59.46701c-38.099915,34.613007 47.219971,12.432007 50.359985,52.570984c6.73999,25.768005 25.5,63.786011 56.709961,66.308014c-2.699951,-17.109009 2.490112,-65.350006 -26.029907,-54.597015c-35.530029,-1.458984 -72.590088,-105.052002 -10.850098,-100.595978c26.460083,-7.269012 41.060059,29.153992 56.710083,44.134003c28.25,37.125977 21.049927,81.494995 58.949951,115.315979c18.210083,40.838989 -9.059937,84.087982 -16.579956,116.910004c-24.219971,-38.778015 -31.930054,38.984985 -10.030029,53.269958c4.609985,31.465027 -23.630005,51.012024 -14.219971,86.528992c-15.140015,35.705017 -23.339966,107.499023 -65.810059,111.215027c-3.849976,-18.560974 -26.309937,-101.453979 -35.98999,-53.552979c16.830078,24.300964 11.869995,69.724976 28.430054,86.016968c33.369995,-10.174011 26.900024,13.390991 20.099976,39.145996c-8.51001,29.324036 -17.910034,86.520996 -44.5,87.345032c-6.199951,-35.910034 35.780029,-93.752014 -0.780029,-113.808044c-9.97998,41.663025 -31.039917,72.533997 -20.650024,115.989014c-5.429932,18.731018 44.76001,-0.385986 10.460083,30.153015c-23.550049,9.179932 -24.050049,61.047974 -61.299988,47.208008c7.080078,-15.460083 60.599915,-74.033997 17.669983,-46.543091c-42.529968,30.853027 -37.169983,88.672974 -92.513977,102.643066c-33.661987,13.219971 -84.740967,-39.070068 -109.403015,7.899902c-30.21698,5.280029 -25.463989,-56.26001 -31.620972,-78.339966c20.947998,-49.234924 -4.685974,-106.489929 16.08197,-152.565918c41.89502,-6.932007 -36.949951,-50.687988 4.098022,-79.362976c4.692993,-20.579041 -15.133972,-42.489014 -13.059021,-64.854004c-7.268982,-35.883057 3.042053,-73.919006 44.038025,-59.921997c-58.403015,-4.180054 -51.848999,-65.269043 -54.049988,-108.593018l-0.020996,-5.539001l0,0zm12.47699,477.896973c21.580017,25.47998 13.658997,-24.44104 0,0zm10.606018,-650.195953c18.22998,40.06601 55.876953,101.112976 103.542969,89.213013c42.572998,-46.953003 75.134033,22.692993 93.783997,42.494965c47.129944,-43.884979 69.669983,49.622986 65.519958,85.856995c5.380005,19.359985 76.630005,45.385986 49.619995,17.953979c-39.25,-35.066956 -33.219971,-102.544006 -80.170044,-137.566986c-7.630005,-30.860962 -77.471924,-1.964966 -46.529907,-49.184967c17.419983,-27.386993 44.539917,-6.109009 67.279907,1.738007c37.609985,-0.390015 55.109985,83.748932 71.910034,70.953949c-5.319946,-41.603943 -40.199951,-85.247955 -66.040039,-101.390961c-15.889893,-34.550995 -104.626892,35.040009 -79.69989,-35.014984c-0.099976,-22.507996 -31.18103,-41.52002 -13.252014,-62.856018c14.772034,-17.766998 25.992004,-85.187988 -7.375977,-43.260986c-43.903992,49.632996 -98.223999,9.40799 -142.031982,-15.07901c-27.240051,32.119019 57.771973,39.097992 75.78595,63.846008c51.13501,13.408997 75.231995,76.324005 41.470032,116.604004c-36.237,-2.846008 -60.567993,55.324951 -86.210022,2.449005c-10.536011,-11.939026 -27.85199,-67.035004 -47.602966,-46.756012zm11.542969,-196.319031c-0.705994,-61.134979 74.484985,-45.686981 109.832031,-25.777985c58.671997,26.918015 7.008972,-34.683014 -22.79303,-29.272003c-36.200989,6.049988 -52.287964,-69.860298 -16.227966,-29.695694c36.05896,40.164688 31.087952,19.3927 65.47699,29.588699c34.385986,10.196991 65.655945,81.552017 5.646973,60.036011c-43.795959,-11.920013 -93.823975,-41.718994 -135.157959,-8.981033c11.317993,4.59404 55.655945,14.378036 15.537964,20.465042c-9.10199,-0.705017 -23.416992,-4.339035 -22.315002,-16.363037zm2.80603,727.564972c42.889954,34.598999 65.962952,-25.284973 102.59198,-35.784973c-54.479004,-8.950989 4.995972,-67.03302 -22.065979,-102.903015c-32.411011,-49.888977 21.066956,-100.342957 -3.903015,-149.296997c-23.478027,45.458984 -45.733032,92.069031 -14.838013,139.958984c20.304993,45.115051 -31.932983,73.118042 -11.549011,118.409058c-10.292969,17.170959 -33.32196,21.265991 -50.235962,29.616943zm1.665955,80.585999c23.162048,21.119019 85.613037,5.567993 32.574036,-16.157959c-10.22998,0.132996 -24.444031,9.203003 -32.574036,16.157959zm3.327026,44.404053c16.481018,53.549927 45.872009,-23.117065 0,0zm6.549988,-425.812012c43.689026,-28.932007 113.252014,-16.437012 133.488037,40.924011c30.237,47.563965 -15.598999,92.109985 0.192993,142.414001c0.412964,53.44397 -14.546021,102.755005 -44.619995,147.003967c-35.600037,27.874023 28.349976,73.346008 -21.889038,100.139954c-34.291992,26.040039 26.815002,63.449951 15.129028,11.530029c11.185974,-28.170044 51.565002,-43.5 20.666016,-76.142944c-0.723022,-30.404053 18.871948,-77.284058 47.047974,-91.206055c27.169983,2.610046 81.009888,2.594055 26.139954,-13.256958c-41.18396,-6.356995 -10.099976,-47.98999 -24.959961,-73.302002c-14.15802,-46.639038 12.02002,-93.312012 13.090027,-140.166992c43.559937,6.039001 88.339966,34.721985 114.819946,70.953979c9.079956,27.734985 21.880005,63.747009 20.949951,13.304016c-5.140015,-31.777039 26.540039,-85.730042 -24.790039,-76.460022c-50.769897,-21.575989 -93.479919,-61.326965 -149.917908,-68.083008c-80.425964,-13.210999 -4.066956,-79.640991 -13.590942,-121.294952c-22.776001,20.519928 -54.817017,64.261993 -78.378052,67.71994c-22.191956,-15.899963 -27.230957,52.145996 -33.377991,65.923035zm149.835022,323.075012c16.149963,22.212952 56.279968,-10.972046 9,-4.413025c-2.600037,0.690979 -8.650024,0.182007 -9,4.413025zm12.169983,-360.717041c27.72998,4.27002 34.399902,-36.469971 5.51001,-5.888977c-1.840027,1.961975 -3.669983,3.927002 -5.51001,5.888977zm21.210022,-418.839951c20.429871,6.983002 59.21991,47.398987 12.499939,17.686996c-5.560059,-4.429016 -11.919983,-9.993027 -12.499939,-17.686996zm13.619934,628.469955c9.969971,50.445007 32.449951,-3.748962 2.140015,-9.742004l-2.030029,7.765015l-0.109985,1.97699l0,0zm6.869995,-574.294952c29.390015,-14.721039 87.069946,65.894989 19.890015,50.461975c-19.859985,-8.925995 -6.410034,-35.658997 -19.890015,-50.461975zm105.849976,237.182983c19.530029,29.541016 56.290039,-15.803986 9.349976,-8.248993c-3.899902,0.815002 -9.719971,3.195007 -9.349976,8.248993zm0,-118.954987c9.469971,19.78299 22.930054,-13.60199 0,0zm3.330078,293.22998c44.059937,23.179016 24.47998,-22.151001 0,0zm49.909912,-189.871979c8,13.29599 5.27002,-12.378998 0,0z" fill="#014a8d"/>
 </g>
</svg>