<svg version="1" xmlns="http://www.w3.org/2000/svg" width="866.667" height="866.667" viewBox="0 0 650.000000 650.000000"><path d="M240 1.4c-15.3 3.3-25.6 9-36.5 20-8.7 8.8-14.3 18.1-18.7 31.1-3 8.9-3.4 9.5-6.4 9.5-4.3 0-17.6 4.9-24.7 9.1-13.5 8-26.6 23-32.2 36.6-1.2 3.2-3.1 9.6-4.1 14.3-1 4.7-1.8 8.6-1.9 8.8-.1.1-3.1 1-6.6 1.9C83.4 139 63 158 54.4 183.5c-3.9 11.5-4.5 28.6-1.5 40.5 2.3 9.3 6.4 18.7 10.9 25.2l3 4.3-4.6 5c-10.2 11.2-17 24.7-19.8 39.3-3.5 18.4.6 38.9 11 54.5l3.6 5.4-9.3 9.4c-10.5 10.7-16.1 20.1-19.8 33.4-3.3 11.4-3.3 28.8-.1 39.9 3.4 11.8 9.4 22.5 17.4 31.1l7 7.5-2 5.2c-4.6 12.4-5.3 31.7-1.7 45.3 3.8 14.1 13.5 29.2 24.7 38.4 7.6 6.2 14 9.7 24.7 13.6l8.5 3 2.4 5.9c14.6 36.5 56.9 56.2 93.8 43.7l5.2-1.7 7.2 4.7c17.6 11.6 40.6 15.6 60.5 10.4 8.4-2.2 20.8-8.3 28.3-14 6.1-4.6 14.9-14.6 18.8-21.3 1-1.7 2.1-3.2 2.4-3.1.3 0 2.5 3.2 5 7.1 5.1 8 14.6 17.2 23.1 22.3 11.1 6.8 27.5 11.5 39.9 11.5 13.4 0 30.3-5.2 41.7-12.7l6.8-4.5 8.3 2.1c17.2 4.5 32 3.8 48.2-2.3 19.5-7.3 35-22.2 43.1-41.6l2.7-6.5 8.4-3c24-8.8 39.7-24.7 48-48.6 3.1-8.9 3.2-10.1 3.2-23.4 0-12.6-.3-14.8-2.8-22.4l-2.8-8.4 5-5.1c23.6-24.2 28.6-59 12.9-89.1-3.1-5.9-6.6-10.5-13.4-17.4l-9.2-9.4 3-4.4c7.4-10.7 12.9-28.5 12.9-42 0-18.4-7.9-38.1-21.2-52.8l-4.5-5 2.4-3.5c4-5.7 8-14.1 10.5-22 2-6.5 2.3-9.5 2.3-22 0-13.6-.2-15-3.2-23.3-9.5-26.8-30.3-45-58.5-51.1-2.3-.5-2.7-1.2-3.3-5.8-3.8-29-27.9-55.9-56-62.4-3.8-.9-7.6-1.9-8.3-2.3-.7-.3-2.6-4.3-4.1-8.8-7.4-21.6-23.6-38.7-43.9-46.6-18.5-7.1-35.7-7.4-54.7-.7-13.9 4.8-28.6 16.5-36.5 28.8-2.5 3.9-4.7 7.1-5 7.1-.3.1-1.4-1.4-2.5-3.2-9.6-16.5-27.4-29.7-47-34.7-10.3-2.6-27-3.4-35.5-1.6zm167.9 13.1c3.5.9 10 3.4 14.5 5.7 16.8 8.7 28.7 24.9 32.4 44l1.7 8.7 6 .6c17 1.9 28.4 7.3 40 18.9 6 6.1 9 10.1 12 16.1l4 8 .3 169.7.2 169.7 2.6 2c3.3 2.6 4.5 2.6 7.8 0l2.6-2V300.5c0-87.1.4-155.6.9-155.9 1.5-1 12.3 2.4 19.5 6.1 10.2 5.3 22.1 17.4 26.9 27.3 4.9 10 6.7 17.7 6.7 28 0 17.4-5.8 31.5-18.4 44.8l-4.1 4.4 3 2.1c1.7 1.2 6.4 5.6 10.6 9.7 6.1 6 8.5 9.3 11.7 16 5.1 10.8 6.3 16.2 6.3 27.5.1 17.9-5.9 31.8-19.9 46.7l-3.5 3.7 4.8 2.8c19 11.2 30.1 25.6 34 44 4.9 22.9-4.2 47.6-22.8 62.2l-6.4 5 3.4 7c17.7 36.6-3.7 80.1-43.6 88.7l-7.8 1.7-1.2 5.1c-5.2 21.1-23.9 39.6-45.6 45.1-7.9 2-23.6 2-30.6-.1-3-.9-5.6-1.8-5.8-1.9-.2-.2 1.3-3 3.2-6.2 4.4-7.2 8.3-18.8 9.3-27.1.3-3.4 1.1-6.2 1.5-6.2 1.3 0 1.2-231.6-.1-234-.6-1.1-10.4-9.9-21.8-19.6-11.4-9.7-21.5-18.5-22.4-19.6-1.7-1.9-1.8-5.3-1.8-40.8v-38.9l-2.6-2c-3.3-2.6-4.5-2.6-7.8 0l-2.6 2v41.8c0 34.9.2 42 1.5 43.7.8 1.2 11.3 10.6 23.5 20.9l22 18.8.2 114.1c.2 62.7.2 116.4.2 119.2-.1 6.4-3.5 16.6-7.7 23.1-6.8 10.6-22.2 21.3-35.7 24.8-8.5 2.2-22.6 2.2-31 0-18.1-4.7-33.8-18-42-35.5l-3.5-7.5V56.3l4.4-8.8c7.8-15.8 24-28.9 40.8-32.9 7.7-1.9 22.3-1.9 30.2-.1z"/><path d="M407 146c-2.6 2.6-2.6 8.1-.2 10.3 2.5 2.3 6.8 2.1 9.2-.3 4.1-4.1 1.2-12-4.5-12-1.4 0-3.4.9-4.5 2zM409.3 173.1c-3.6 1.3-4.3 4.1-4.3 17.7 0 11.2.2 13.1 1.8 14.5 2.5 2.3 6.8 2.1 9.2-.3 1.8-1.8 2-3.3 2-15.3 0-7.2-.4-13.7-.8-14.4-1.2-1.9-5.5-3.1-7.9-2.2zM523.3 476.1c-3.6 1.3-4.3 4.1-4.3 17.7 0 14.4.8 16.2 6.7 16.2 5.5 0 6.3-2.1 6.3-17.1 0-7.4-.4-13.9-.8-14.6-1.2-1.9-5.5-3.1-7.9-2.2zM521 527c-2.6 2.6-2.6 8.1-.2 10.3 2.5 2.3 6.8 2.1 9.2-.3 4.1-4.1 1.2-12-4.5-12-1.4 0-3.4.9-4.5 2z"/></svg>