<?xml version="1.0" standalone="no"?>
<!DOCTYPE svg PUBLIC "-//W3C//DTD SVG 20010904//EN"
 "http://www.w3.org/TR/2001/REC-SVG-20010904/DTD/svg10.dtd">
<svg version="1.0" xmlns="http://www.w3.org/2000/svg"
 width="800.000000pt" height="800.000000pt" viewBox="0 0 800.000000 800.000000"
 preserveAspectRatio="xMidYMid meet">
<metadata>
Created by potrace 1.15, written by Peter Selinger 2001-2017
</metadata>
<g transform="translate(0.000000,800.000000) scale(0.100000,-0.100000)"
fill="none" stroke="#222222" color="#222222">
<path d="M4065 6819 c-179 -23 -429 -132 -538 -235 -29 -26 -30 -26 -97 -15
-308 50 -695 -64 -919 -271 -22 -21 -47 -38 -56 -38 -8 0 -77 -21 -153 -46
-345 -114 -660 -341 -855 -616 -38 -55 -78 -100 -94 -107 -149 -67 -335 -263
-435 -456 -45 -89 -101 -244 -114 -319 -4 -24 -27 -65 -60 -110 -264 -350
-293 -859 -68 -1195 24 -36 44 -75 44 -87 0 -35 49 -175 82 -234 48 -86 116
-167 182 -217 68 -51 184 -108 253 -124 34 -7 62 -25 110 -68 126 -116 270
-171 463 -177 133 -4 216 8 317 46 l55 20 46 -52 c215 -246 432 -369 724 -412
131 -20 231 -20 378 -2 329 41 587 142 811 317 20 16 41 29 47 29 6 0 12 5 14
11 2 6 24 -15 48 -47 109 -145 221 -219 375 -250 162 -33 318 -139 433 -294
18 -25 50 -68 70 -95 44 -60 136 -242 153 -304 7 -24 18 -49 24 -55 7 -6 40
-79 74 -161 141 -340 165 -370 301 -370 67 0 82 4 118 27 23 16 49 39 58 53 9
14 55 128 102 253 81 213 86 232 85 302 0 72 -4 84 -86 277 -48 111 -87 205
-87 210 0 4 15 19 33 33 44 34 105 99 112 120 4 12 28 23 78 35 357 86 677
327 827 625 116 229 131 484 44 712 l-18 47 29 23 c177 139 288 407 271 652
-9 113 -28 213 -59 307 -17 50 -25 98 -26 149 -4 268 -133 553 -342 758 -36
34 -78 72 -94 83 -17 12 -50 55 -74 97 -110 186 -287 315 -516 375 -87 23 -91
25 -109 63 -10 21 -27 45 -37 52 -11 7 -19 20 -19 27 0 24 -190 209 -270 262
-222 148 -447 216 -709 212 l-136 -2 -55 35 c-204 128 -468 181 -735 147z
m177 -238 c-3 -31 0 -42 19 -55 13 -9 34 -16 46 -16 28 0 63 37 63 66 0 32 12
36 64 23 37 -9 46 -16 46 -34 0 -49 71 -75 110 -40 18 17 21 16 67 -11 26 -15
69 -43 95 -61 46 -34 47 -34 125 -27 123 12 118 13 121 -28 2 -27 -3 -43 -17
-57 -43 -43 -16 -111 45 -111 57 0 85 68 44 105 -13 12 -20 31 -20 57 l0 38
43 0 c37 0 65 -5 154 -25 20 -5 21 -8 11 -30 -9 -19 -9 -28 0 -37 9 -9 12 -8
12 3 0 9 8 23 18 32 15 13 21 14 50 2 22 -10 32 -21 33 -37 l1 -23 6 23 7 22
64 -30 c81 -38 121 -67 121 -87 0 -8 26 -48 58 -89 54 -70 59 -73 99 -74 34 0
46 -6 69 -32 l27 -33 -199 -3 -199 -3 -30 36 -30 35 -125 0 -126 0 -64 -65
-64 -65 -134 0 c-119 0 -137 2 -159 20 -14 11 -36 20 -49 20 -31 0 -64 -33
-64 -65 0 -33 33 -65 68 -65 16 0 37 9 47 20 17 18 31 20 164 20 l147 0 64 65
64 65 106 0 105 0 28 -35 28 -35 227 -2 227 -3 17 -37 c23 -49 49 -64 128 -78
154 -26 288 -91 385 -186 94 -92 92 -95 -62 -92 l-128 3 -3 28 c-3 27 -4 27
-83 27 l-79 0 0 -85 0 -85 79 0 80 0 3 33 c2 26 7 32 26 31 12 0 76 -1 142 -2
l120 -2 0 -48 c0 -36 -5 -50 -20 -60 -44 -27 -9 -112 47 -112 30 0 63 33 63
64 0 13 -10 36 -22 52 -26 32 -12 26 52 -25 74 -58 150 -135 150 -152 0 -9
-70 -83 -155 -164 l-155 -147 0 -195 c0 -262 19 -243 -237 -243 l-193 0 0 83
0 82 55 60 c52 57 54 63 55 115 0 44 4 58 20 68 25 15 27 73 4 96 -23 24 -85
21 -91 -4 -3 -11 -9 -20 -14 -20 -17 0 -9 -47 11 -65 15 -13 20 -31 20 -64 0
-42 -6 -52 -55 -106 l-54 -60 -3 -90 -3 -90 -277 -3 -278 -2 0 71 0 72 -102
105 c-57 58 -118 121 -136 140 -27 28 -34 44 -41 98 -5 44 -14 71 -29 87 -22
23 -22 29 -22 309 0 251 -2 287 -16 292 -9 3 -14 15 -12 28 3 20 10 23 59 26
45 2 61 8 79 27 23 24 29 25 148 25 155 0 162 -4 162 -97 0 -50 -4 -67 -20
-83 -11 -11 -20 -31 -20 -45 0 -14 9 -34 20 -45 41 -41 110 -10 110 48 0 16
-9 37 -20 47 -16 14 -20 31 -20 79 0 50 4 63 20 74 25 15 27 68 3 94 -21 24
-68 23 -93 -2 -18 -18 -33 -20 -135 -20 -63 0 -115 3 -115 6 0 3 9 17 20 31
27 34 25 59 -5 88 -30 31 -58 32 -85 3 -26 -28 -26 -73 0 -95 24 -21 25 -40 3
-65 -14 -15 -32 -18 -132 -18 -104 0 -118 2 -134 20 -9 11 -29 20 -45 20 -16
0 -37 -9 -47 -20 -16 -18 -31 -20 -122 -20 -103 0 -105 0 -143 33 -39 31 -40
34 -40 97 l0 65 -77 77 -78 78 -165 0 c-146 1 -168 3 -187 19 -27 22 -32 87
-9 105 19 14 32 66 17 66 -6 0 -11 7 -11 15 0 9 -6 12 -16 8 -11 -4 -12 -9 -5
-16 28 -28 -6 -75 -43 -61 -20 8 -31 43 -17 57 6 6 11 20 11 30 0 16 -3 17
-15 7 -8 -7 -15 -19 -15 -26 0 -8 -4 -14 -10 -14 -18 0 -11 -28 15 -58 18 -22
25 -42 25 -73 0 -39 5 -48 40 -76 l39 -33 163 0 162 0 63 -62 63 -62 0 -66 0
-66 54 -47 c52 -45 57 -47 115 -47 48 0 61 3 61 15 0 8 5 15 10 15 6 0 10 -7
10 -15 0 -11 12 -15 50 -15 28 0 50 -4 50 -10 0 -5 8 -10 18 -10 9 0 13 4 7 8
-13 9 -17 30 -10 52 14 43 81 28 72 -16 -3 -16 0 -24 9 -24 8 0 14 4 14 9 0 6
12 6 32 0 41 -11 38 -12 38 6 0 8 5 15 10 15 6 0 10 -7 10 -15 0 -8 8 -15 18
-15 16 0 17 -21 14 -320 l-4 -321 27 -35 c20 -26 28 -51 32 -93 l6 -58 133
-139 133 -139 1 -116 c0 -116 0 -117 25 -121 23 -5 25 -2 25 33 l0 39 499 0
c482 0 500 -1 513 -19 22 -31 60 -35 91 -11 33 26 36 69 7 95 -19 17 -20 31
-20 203 l0 185 146 141 c80 78 149 142 153 144 4 1 17 -16 30 -38 l23 -40 -47
-52 c-26 -28 -53 -64 -61 -79 -8 -16 -25 -39 -39 -53 -32 -32 -32 -60 0 -91
29 -30 55 -32 86 -7 27 23 30 73 6 100 -15 17 -15 20 0 43 33 47 77 89 84 82
4 -5 16 -31 27 -58 l20 -50 -24 -28 c-38 -44 -27 -87 26 -105 33 -12 33 -14
35 -152 1 -44 10 -88 28 -135 l26 -70 -41 -42 c-22 -22 -38 -46 -34 -51 12
-20 -6 -44 -30 -39 -19 3 -43 -17 -130 -105 -75 -76 -112 -107 -124 -103 -27
8 -70 -32 -70 -65 0 -29 38 -70 65 -70 28 0 65 41 65 73 0 28 17 49 120 152
97 97 120 125 120 148 0 26 2 28 37 25 36 -3 38 -5 46 -48 19 -104 -14 -307
-64 -397 -49 -86 -43 -83 -134 -83 l-82 0 -156 -146 c-119 -111 -157 -152
-157 -171 0 -13 -9 -33 -20 -45 -55 -59 15 -148 79 -101 34 26 40 72 11 98
-11 10 -20 26 -20 35 0 9 55 68 122 131 67 63 130 122 140 132 12 12 34 17 69
17 61 0 57 -10 -24 -61 -29 -18 -60 -42 -69 -53 -25 -29 -22 -79 6 -135 41
-80 67 -162 72 -231 l6 -65 -91 -90 c-88 -86 -110 -125 -74 -125 10 0 51 33
91 73 l74 72 -7 -50 c-8 -59 -39 -152 -72 -217 -23 -48 -24 -48 -73 -48 -37 0
-61 -7 -90 -25 -37 -23 -40 -29 -40 -69 0 -30 -6 -48 -20 -61 -13 -12 -20 -31
-20 -56 0 -65 -75 -104 -115 -59 -20 22 -46 25 -76 9 -30 -15 -39 -49 -24 -86
l13 -31 -86 -36 c-48 -20 -139 -48 -202 -62 -63 -14 -123 -33 -133 -41 -9 -9
-22 -34 -29 -55 -14 -48 -56 -85 -106 -94 -20 -3 -52 -15 -70 -25 -27 -16 -54
-19 -150 -19 l-117 0 -27 34 c-17 21 -28 47 -28 65 0 17 -4 31 -10 31 -5 0
-10 11 -10 25 0 16 -6 25 -15 25 -18 0 -20 -40 -2 -41 10 0 10 -2 0 -6 -8 -2
-13 -22 -13 -44 0 -33 8 -49 43 -90 l42 -49 123 0 c113 0 122 -1 122 -19 0
-10 6 -34 14 -53 9 -20 12 -50 9 -74 -4 -31 -1 -43 16 -58 18 -16 21 -31 21
-95 0 -74 1 -77 38 -117 141 -153 137 -144 101 -239 -11 -31 -25 -55 -30 -53
-5 2 -70 61 -144 131 -142 135 -154 156 -115 192 43 39 14 105 -46 105 -57 0
-84 -65 -44 -108 11 -12 20 -34 20 -51 0 -25 23 -51 155 -177 85 -81 155 -153
155 -161 0 -17 -70 -204 -83 -221 -12 -16 -21 -7 -34 33 -9 25 -7 35 8 54 38
47 9 111 -49 111 -28 0 -32 6 -97 162 -74 178 -166 361 -220 439 -19 27 -35
51 -35 54 0 3 29 5 65 5 51 0 72 -5 94 -21 70 -52 144 46 74 100 -29 23 -55
21 -88 -9 -15 -15 -39 -19 -103 -21 l-83 -2 -29 34 c-16 19 -29 42 -30 51 0
31 -23 68 -44 74 -12 3 -50 39 -86 80 l-65 74 -54 -3 c-38 -3 -74 3 -120 18
-36 13 -86 26 -111 30 -25 4 -53 11 -62 17 -24 12 -23 41 2 63 24 22 27 77 4
99 -34 35 -114 5 -114 -43 0 -10 9 -30 21 -45 11 -14 19 -32 16 -39 -2 -7 -31
15 -68 53 -48 49 -76 89 -111 162 -53 107 -74 128 -131 128 -30 0 -46 -7 -69
-30 l-30 -30 -19 22 c-13 16 -18 39 -19 75 0 53 0 53 -95 155 l-95 103 0 68
c0 54 4 74 20 94 24 31 25 51 4 81 -18 27 -69 30 -96 5 -24 -22 -23 -75 2 -98
17 -15 20 -31 20 -94 l0 -77 95 -101 c85 -90 95 -105 95 -138 0 -25 -8 -47
-25 -67 -32 -37 -32 -63 0 -92 l25 -23 -23 -19 c-12 -11 -41 -33 -65 -48 -39
-27 -43 -28 -60 -12 -16 14 -47 16 -221 16 -203 0 -203 0 -233 25 -21 18 -37
24 -52 19 -73 -22 -76 -107 -5 -129 14 -5 31 0 50 14 26 20 41 21 229 21 113
0 200 -4 200 -9 0 -5 -42 -30 -92 -55 -99 -49 -322 -112 -433 -122 l-60 -6
-57 51 c-37 33 -58 61 -60 78 -2 14 -15 35 -30 46 -24 18 -30 18 -57 7 -75
-31 -36 -144 42 -125 17 5 31 -3 57 -31 l35 -36 -135 5 c-169 7 -250 27 -210
52 6 3 10 34 10 69 0 50 4 67 20 81 41 38 14 105 -43 105 -61 0 -90 -67 -47
-110 24 -24 28 -106 6 -135 -13 -18 -17 -17 -105 25 -50 24 -91 47 -91 51 0 4
7 9 15 13 38 14 37 86 -1 109 -8 4 -14 25 -14 45 0 35 -10 47 -145 180 l-146
143 21 26 c25 32 25 44 -1 77 -23 30 -63 34 -94 10 -14 -10 -19 -26 -19 -54
l1 -40 -125 0 -126 0 -58 -57 c-56 -55 -58 -59 -58 -110 0 -61 -13 -73 -83
-73 -85 0 -227 58 -296 120 l-32 29 21 21 c20 20 25 45 14 74 -11 28 -24 17
-24 -19 0 -44 -23 -56 -52 -27 -24 24 -18 52 12 52 12 0 20 7 20 18 0 14 -2
15 -10 2 -9 -13 -11 -13 -20 0 -6 10 -10 11 -10 3 0 -7 -7 -13 -15 -13 -9 0
-18 -7 -21 -15 -11 -27 -95 -11 -184 35 -39 20 -42 23 -24 32 10 6 24 16 29
22 6 6 65 63 130 126 66 63 186 179 268 259 l147 145 0 46 c0 33 5 50 20 63
29 25 26 71 -6 96 -33 26 -45 26 -78 0 -32 -25 -35 -71 -6 -96 13 -12 20 -30
20 -54 0 -33 -10 -46 -122 -155 -329 -321 -399 -388 -410 -396 -22 -13 -72 -9
-97 8 -36 26 -99 131 -121 202 -27 88 -27 95 10 87 62 -14 103 48 68 104 -9
15 -9 22 3 34 71 73 89 98 89 127 0 16 -4 30 -10 30 -5 0 -10 -12 -10 -26 0
-18 -4 -25 -14 -21 -8 3 -46 -28 -95 -80 l-81 -85 -23 28 c-12 15 -30 40 -39
56 l-18 28 38 0 c27 0 45 7 60 23 l21 23 -20 13 c-12 7 -18 8 -14 2 4 -7 -13
-11 -53 -11 -56 0 -60 2 -71 28 -37 92 -58 254 -47 363 6 53 11 66 29 74 33
15 45 60 26 94 -15 26 -15 32 6 88 29 80 76 163 141 247 33 42 56 83 60 105 3
20 12 56 19 81 12 43 13 40 14 -83 l1 -128 57 -65 c52 -57 62 -64 96 -64 l37
0 0 -174 c0 -144 3 -176 15 -186 11 -9 13 -16 5 -24 -31 -31 5 -96 54 -96 43
0 68 28 64 72 -2 27 -10 37 -43 54 l-40 20 -3 167 -2 167 37 2 c21 1 48 2 61
2 14 0 22 6 22 18 0 10 5 18 10 18 6 0 10 -8 10 -18 0 -15 9 -17 75 -15 l75 2
0 -53 c0 -40 -5 -57 -20 -71 -26 -23 -26 -69 0 -95 26 -26 51 -25 84 1 31 25
33 57 6 92 -11 14 -20 40 -20 60 0 20 -4 39 -10 42 -5 3 -10 -3 -10 -14 0 -12
-5 -21 -11 -21 -6 0 -9 15 -8 34 6 64 -2 66 -212 66 l-190 0 -44 48 -45 47 0
193 c0 188 1 194 26 245 78 154 214 298 349 371 83 44 91 42 188 -52 91 -86
102 -110 68 -140 -30 -27 -34 -56 -10 -85 26 -34 70 -36 99 -5 25 27 25 48 0
81 -11 14 -20 38 -20 53 0 23 -21 50 -105 134 l-105 105 33 50 32 50 148 3
c139 2 149 1 177 -20 25 -18 35 -20 58 -12 37 13 57 56 41 86 -16 31 -28 38
-66 38 -22 0 -37 -7 -45 -20 -12 -18 -24 -20 -135 -20 -68 0 -123 4 -123 8 0
16 120 123 130 117 5 -3 10 0 10 7 0 8 9 14 21 15 14 1 19 -3 15 -13 -3 -9 1
-14 13 -14 10 0 21 7 25 15 3 8 16 14 28 14 17 -1 18 -2 6 -6 -24 -6 -23 -23
2 -23 11 0 20 7 20 15 0 9 9 15 25 15 14 0 25 -6 25 -12 0 -10 2 -10 8 -1 4 6
23 13 42 16 19 2 -21 5 -89 5 l-124 2 19 21 c35 39 144 111 159 105 24 -9 59
9 75 39 14 26 57 55 82 55 7 0 47 -33 88 -73 41 -40 130 -126 197 -190 l123
-117 153 0 153 0 38 39 c30 31 39 49 42 82 2 26 11 49 24 61 56 52 -12 145
-75 104 -36 -24 -42 -61 -16 -96 29 -40 27 -78 -6 -112 l-27 -28 -135 0 -136
1 -185 179 c-102 98 -183 181 -180 183 5 5 179 67 187 67 10 0 0 -36 -17 -57
-26 -33 -25 -61 2 -90 25 -27 54 -29 86 -7 29 20 30 74 2 99 -13 12 -20 29
-18 43 2 20 12 27 50 37 34 8 64 28 113 73 38 34 72 62 77 62 5 0 13 -11 18
-24 19 -50 77 -60 109 -20 27 34 27 58 0 85 -12 12 -17 25 -13 29 15 14 131
58 171 65 38 6 41 4 97 -54 l57 -61 146 0 c122 0 149 -3 165 -17 26 -23 25
-94 -2 -118 -25 -23 -26 -56 -2 -85 22 -27 65 -29 92 -5 27 24 27 81 0 95 -16
9 -20 21 -20 62 0 45 -4 57 -32 85 l-32 33 -146 0 -146 0 -39 40 c-21 22 -35
43 -31 47 4 4 40 9 81 11 66 4 75 2 87 -17 12 -20 21 -21 176 -21 135 0 164 3
168 15 4 8 17 15 30 15 15 0 24 6 24 15 0 8 5 15 10 15 6 0 10 -20 10 -45 0
-38 -3 -45 -20 -45 -19 0 -20 -7 -20 -180 0 -167 -1 -181 -20 -200 -58 -58 31
-148 92 -93 25 22 24 79 -2 95 -19 12 -20 24 -20 272 0 253 1 260 22 283 12
13 25 23 30 23 4 0 8 -29 8 -65 0 -51 4 -69 20 -85 10 -10 21 -16 23 -12 3 4
5 48 6 97 2 102 4 104 82 129 58 19 57 20 142 -70 51 -55 57 -65 57 -105 0
-45 13 -79 26 -66 4 3 1 14 -7 24 -12 15 -12 16 4 10 15 -6 17 0 17 49 0 55
-1 57 -62 120 -34 35 -58 67 -55 70 12 12 74 22 147 23 l76 1 -4 -39z m-1812
-3818 c154 -150 158 -158 115 -221 l-25 -37 -66 70 c-36 39 -83 96 -105 127
-22 32 -49 67 -61 78 -30 28 -83 26 -154 -6 -85 -38 -186 -64 -201 -52 -7 6
-13 29 -13 51 0 35 6 48 42 84 l42 43 143 0 142 0 141 -137z"/>
<path d="M4497 6428 c-9 -7 -19 -25 -22 -40 -5 -21 -1 -33 19 -52 30 -31 55
-33 89 -6 17 14 40 20 74 20 46 0 52 -3 103 -55 60 -61 67 -90 29 -131 -10
-11 -19 -30 -19 -42 0 -29 34 -62 65 -62 57 0 85 70 44 111 -16 16 -20 29 -16
54 5 29 -1 38 -67 104 l-71 71 -61 0 c-48 0 -65 4 -79 20 -20 23 -63 26 -88 8z"/>
<path d="M3782 6304 c-8 -9 -12 -45 -11 -111 l1 -98 59 -62 c50 -54 63 -63 94
-63 l35 0 0 -174 c0 -109 4 -177 10 -181 6 -4 8 -21 4 -41 -9 -49 16 -84 60
-84 39 0 66 26 66 63 0 29 -31 67 -53 67 -8 0 -21 8 -30 18 -14 16 -17 43 -17
175 l0 157 134 0 c128 0 136 -1 150 -22 22 -31 20 -71 -4 -93 -55 -50 13 -142
75 -101 36 24 42 61 16 96 -11 16 -21 43 -21 61 0 20 -11 45 -31 70 l-31 39
-187 0 -187 0 -47 48 -47 48 0 91 c0 94 -12 125 -38 97z"/>
<path d="M3052 6145 c-25 -21 -40 -25 -89 -25 l-60 0 -66 -69 c-57 -59 -67
-74 -67 -105 0 -23 -7 -43 -20 -56 -26 -26 -25 -60 0 -88 24 -26 57 -28 88 -6
29 20 30 74 2 99 -35 31 -25 65 33 123 50 50 55 52 106 52 35 0 58 -5 65 -14
20 -27 60 -29 89 -6 46 37 31 96 -29 114 -15 5 -31 -1 -52 -19z"/>
<path d="M3281 6084 c-26 -33 -27 -58 -1 -84 12 -12 20 -33 20 -52 0 -29 15
-47 121 -147 67 -63 124 -110 127 -104 4 5 13 12 20 14 8 3 -32 49 -102 116
-67 65 -116 120 -116 131 0 10 9 27 20 37 28 25 27 79 -2 99 -33 23 -64 19
-87 -10z"/>
<path d="M5662 5894 c-29 -20 -30 -77 -2 -101 17 -15 20 -30 20 -104 0 -73 -3
-89 -20 -104 -28 -25 -27 -79 2 -99 46 -33 108 -4 108 49 0 14 -9 34 -20 45
-17 17 -20 33 -20 110 0 77 3 93 20 110 27 27 25 56 -5 85 -28 29 -51 31 -83
9z"/>
<path d="M4092 5870 c-33 -14 -45 -54 -27 -91 9 -16 20 -29 25 -29 6 0 10 -24
10 -54 0 -52 2 -55 42 -85 l42 -31 156 0 155 0 63 -62 62 -61 0 -67 c0 -54 -4
-70 -20 -85 -29 -26 -26 -69 6 -94 33 -26 45 -26 78 0 32 25 35 68 6 94 -17
15 -20 31 -20 94 l-1 76 -73 78 -74 77 -163 0 c-159 1 -165 1 -191 25 -36 31
-37 75 -3 109 29 29 32 56 8 84 -22 25 -51 33 -81 22z"/>
<path d="M2080 5677 c0 -13 9 -32 20 -42 15 -13 20 -31 20 -65 0 -46 2 -49 74
-114 l74 -66 85 0 c68 0 86 -3 91 -16 12 -30 6 -64 -14 -84 -26 -26 -25 -64 2
-90 26 -24 56 -26 86 -4 29 20 30 74 2 99 -11 10 -20 30 -20 45 0 15 -7 44
-15 64 l-15 36 -91 0 -90 0 -60 52 c-56 50 -59 55 -59 98 0 37 -5 52 -25 70
-21 19 -25 21 -25 7 0 -9 -4 -17 -10 -17 -5 0 -10 11 -10 25 0 14 -4 25 -10
25 -5 0 -10 -11 -10 -23z"/>
<path d="M3564 5688 c-4 -6 1 -17 11 -25 11 -7 16 -13 13 -13 -4 0 43 -48 103
-107 60 -58 109 -113 109 -121 0 -8 -11 -27 -25 -44 -30 -36 -31 -48 -4 -82
28 -35 70 -35 98 0 27 34 26 46 -4 82 -15 18 -25 42 -25 60 0 26 -16 46 -92
121 -69 67 -100 91 -119 91 -26 0 -45 23 -33 41 3 5 -2 9 -10 9 -8 0 -18 -5
-22 -12z"/>
<path d="M3051 5680 c-1 -8 -4 -25 -7 -36 -8 -31 31 -65 71 -62 26 2 46 -10
113 -68 60 -52 81 -75 81 -95 2 -56 84 -82 115 -37 36 51 3 110 -58 106 -29
-2 -46 8 -114 68 -44 38 -81 73 -81 77 -1 5 -7 15 -15 23 -13 12 -15 10 -18
-13 -2 -24 -8 -28 -33 -28 -26 0 -31 5 -41 40 -7 22 -13 33 -13 25z"/>
<path d="M5877 5582 c-23 -25 -21 -68 3 -92 18 -18 20 -33 20 -145 l0 -125
-54 0 c-51 0 -57 -3 -110 -51 l-56 -51 1 -77 c1 -42 4 -65 6 -52 3 13 13 26
24 28 14 4 19 14 19 38 0 26 10 43 40 74 l41 41 244 0 245 0 0 -253 c0 -241
-1 -255 -20 -272 -41 -37 -11 -115 43 -115 30 0 67 39 67 72 0 14 -9 33 -20
43 -19 17 -20 31 -20 272 l0 253 42 0 c29 0 49 -7 64 -21 44 -42 114 -15 114
43 0 32 -31 68 -59 68 -10 0 -30 -9 -44 -20 -24 -19 -40 -20 -271 -20 l-246 0
0 125 c0 112 2 128 20 147 24 26 26 56 4 86 -19 28 -74 30 -97 4z"/>
<path d="M5140 5440 c-41 -41 -10 -110 48 -110 16 0 37 9 47 20 13 15 31 20
65 20 44 0 51 -4 103 -57 62 -61 70 -90 37 -123 -38 -38 -20 -102 33 -115 20
-5 32 -1 51 19 31 30 33 55 6 89 -11 14 -20 40 -20 59 -1 27 -13 46 -70 106
l-69 72 -60 0 c-48 0 -65 4 -81 20 -11 11 -31 20 -45 20 -14 0 -34 -9 -45 -20z"/>
<path d="M4166 5399 c-32 -25 -35 -68 -6 -94 14 -13 20 -31 20 -59 0 -39 6
-47 93 -133 50 -50 101 -93 112 -95 11 -2 21 -12 23 -24 2 -11 41 -58 87 -104
l85 -85 0 -93 0 -94 59 -66 c51 -55 59 -70 54 -93 -4 -21 1 -34 20 -53 31 -31
60 -33 87 -6 37 37 15 110 -33 110 -9 0 -43 28 -77 63 l-60 62 0 95 0 95 -200
200 c-174 174 -200 204 -200 231 0 18 8 38 20 49 20 18 26 60 12 81 -8 13 -46
34 -60 34 -5 0 -21 -9 -36 -21z"/>
<path d="M2821 5373 c-24 -29 -21 -55 10 -89 11 -12 19 -35 19 -55 0 -28 9
-44 49 -83 l50 -49 142 6 142 5 48 -51 c45 -49 47 -54 42 -95 -7 -51 15 -82
59 -82 59 0 90 72 47 108 -12 9 -56 51 -98 94 l-76 76 -143 -5 -143 -6 -34 33
c-41 40 -46 78 -15 117 25 32 25 44 -1 77 -28 35 -70 35 -98 -1z"/>
<path d="M3574 5392 c-36 -24 -36 -81 0 -111 12 -10 16 -32 16 -90 0 -77 0
-77 45 -126 30 -35 44 -45 45 -32 0 21 20 23 20 2 0 -12 18 -15 98 -15 57 0
103 5 109 11 8 8 13 8 17 0 11 -17 56 -14 56 4 0 8 5 15 10 15 6 0 10 -7 10
-15 0 -11 12 -15 47 -15 30 0 54 -6 67 -17 20 -17 20 -17 6 1 -14 18 -13 19 3
13 32 -12 40 4 16 29 -22 24 -24 24 -233 24 l-210 0 -28 27 c-26 25 -28 33
-28 101 0 59 4 79 20 99 25 33 25 54 0 81 -20 22 -64 29 -86 14z"/>
<path d="M2005 5305 c-30 -29 -31 -40 -5 -83 11 -18 20 -49 20 -70 0 -30 8
-47 43 -85 l44 -47 81 0 c57 0 82 4 82 12 0 9 3 9 12 0 17 -17 58 -15 58 3 0
8 5 15 10 15 6 0 10 -7 10 -15 0 -14 25 -20 76 -16 22 2 39 -23 28 -41 -3 -5
6 -22 21 -38 22 -23 25 -31 16 -48 -28 -52 0 -102 57 -102 34 0 62 29 62 65 0
24 -34 65 -54 65 -7 0 -18 12 -24 26 -7 14 -17 22 -23 18 -6 -3 -15 0 -20 7
-6 10 -9 11 -9 2 0 -7 -4 -13 -9 -13 -4 0 -6 10 -4 23 3 16 -4 34 -22 55 l-27
32 -151 0 -152 0 -27 34 c-35 43 -35 79 -3 118 29 34 26 62 -7 91 -28 24 -55
21 -83 -8z"/>
<path d="M4427 5319 c-30 -17 -39 -56 -22 -90 9 -16 20 -29 25 -29 6 0 10 -20
10 -44 0 -40 4 -48 51 -90 l51 -46 139 6 c121 6 141 5 157 -9 10 -10 22 -14
27 -10 4 5 5 3 2 -3 -3 -6 7 -26 23 -45 24 -29 28 -40 23 -74 -4 -32 0 -45 17
-62 11 -13 29 -23 39 -23 31 0 71 39 71 69 0 27 -26 61 -47 61 -5 0 -41 34
-78 76 l-69 77 -139 -6 -139 -7 -39 31 c-45 36 -52 75 -19 116 27 34 25 59 -5
88 -26 27 -49 31 -78 14z"/>
<path d="M1400 5193 c-25 -32 -20 -70 10 -92 17 -11 20 -25 20 -93 l0 -79 73
-77 c40 -42 84 -89 97 -104 l24 -28 171 0 171 0 93 -105 c91 -103 93 -106 81
-135 -7 -16 -9 -41 -6 -55 5 -20 3 -25 -13 -25 -10 0 -25 -7 -32 -17 -13 -15
-11 -16 22 -9 42 7 63 -9 57 -46 -2 -18 -9 -23 -33 -23 -25 0 -30 4 -33 28 -2
15 -8 27 -13 27 -15 0 -10 -62 6 -74 13 -10 -8 -35 -135 -160 -132 -130 -150
-152 -150 -181 0 -19 -8 -39 -20 -50 -29 -26 -26 -69 6 -94 34 -26 54 -26 82
-1 28 26 28 71 2 95 -40 36 -27 57 123 204 l142 141 143 0 143 0 45 -42 c38
-36 44 -47 44 -82 0 -29 -6 -47 -20 -59 -28 -24 -27 -81 2 -101 32 -22 61 -20
86 7 27 29 28 57 2 90 -14 17 -20 40 -20 74 0 46 -2 50 -62 106 l-63 57 -125
0 -126 0 1 45 c0 29 4 45 13 45 22 0 52 39 52 68 0 19 -14 41 -48 74 -26 25
-85 91 -132 146 l-85 101 -173 0 -174 1 -88 93 -89 92 -1 67 c0 55 3 69 19 80
34 24 37 63 7 92 -33 34 -69 33 -96 -1z"/>
<path d="M1227 5009 c-40 -23 -40 -88 -1 -112 10 -6 14 -32 14 -94 0 -77 -3
-88 -25 -115 -29 -34 -26 -62 7 -90 28 -25 55 -22 84 8 20 19 24 31 19 52 -3
15 -13 32 -21 38 -10 8 -14 34 -14 99 0 72 3 91 20 112 27 34 25 59 -5 88 -26
27 -49 31 -78 14z"/>
<path d="M2696 5001 c-5 -7 -10 -41 -13 -75 l-4 -61 96 -98 c92 -94 95 -99 95
-142 0 -32 -6 -51 -20 -65 -43 -43 -14 -110 47 -110 57 0 85 71 43 107 -16 14
-20 30 -20 74 l0 57 -95 99 c-84 88 -94 102 -95 136 0 20 -4 37 -9 37 -5 0
-11 12 -13 28 -2 19 -5 23 -12 13z"/>
<path d="M4155 5000 c-8 -13 4 -32 15 -25 5 3 11 1 15 -5 3 -5 -2 -10 -12 -10
-15 0 -14 -2 5 -16 32 -22 31 -85 -3 -118 -32 -32 -32 -60 0 -91 31 -32 59
-32 91 1 30 29 27 67 -6 96 -16 12 -20 29 -20 72 0 48 -3 56 -18 56 -11 0 -24
11 -30 25 -12 26 -26 32 -37 15z"/>
<path d="M4730 4933 c-50 -19 -66 -75 -30 -108 14 -13 20 -31 20 -64 0 -40 6
-52 41 -88 l40 -43 152 -1 152 -1 49 -54 c45 -50 48 -55 38 -84 -20 -57 19
-108 73 -94 28 7 55 39 55 65 0 16 -32 59 -44 59 -4 0 -41 36 -83 80 l-75 80
-150 0 -149 0 -24 28 c-30 34 -33 84 -5 112 29 29 26 74 -6 99 -28 22 -30 23
-54 14z"/>
<path d="M5429 4912 c-30 -25 -30 -75 -1 -101 19 -15 22 -29 22 -88 l0 -70 40
-27 c34 -23 50 -26 120 -26 57 0 88 -5 105 -16 67 -44 132 56 68 105 -31 25
-58 20 -90 -15 -19 -21 -31 -24 -90 -24 -90 1 -103 11 -103 85 0 42 5 64 20
82 27 34 25 59 -5 88 -29 30 -55 32 -86 7z"/>
<path d="M3722 4889 c-12 -5 -25 -15 -28 -24 -5 -12 -24 -15 -88 -15 l-81 0
-140 -165 c-153 -180 -162 -186 -217 -140 -36 30 -48 31 -82 4 -45 -35 -31
-101 25 -114 19 -5 34 0 56 19 21 18 43 26 69 26 38 1 43 6 164 147 69 80 131
152 138 159 9 9 36 14 78 14 51 0 71 -5 94 -22 24 -18 35 -20 57 -12 32 11 49
49 39 87 -7 30 -50 48 -84 36z"/>
<path d="M3973 4840 c-46 -19 -55 -69 -18 -106 22 -22 25 -33 25 -101 l0 -75
101 -109 101 -109 173 0 172 0 84 -101 c48 -57 83 -108 81 -117 -2 -9 -6 -30
-9 -45 -7 -38 20 -67 63 -67 65 0 85 73 33 118 -16 15 -76 80 -131 145 l-102
117 -172 0 -172 0 -91 98 -91 97 0 63 c0 53 4 67 22 81 25 21 29 75 7 95 -20
20 -51 26 -76 16z"/>
<path d="M2346 4729 c-32 -25 -35 -68 -6 -94 16 -15 20 -31 20 -86 l0 -67 42
-31 c38 -28 49 -31 119 -31 49 0 87 -5 105 -15 39 -20 51 -19 79 10 32 31 32
59 -1 91 -19 20 -31 24 -51 19 -28 -7 -53 -28 -53 -44 0 -18 -142 -14 -168 5
-31 21 -32 122 -2 149 29 26 26 69 -6 94 -15 12 -32 21 -39 21 -7 0 -24 -9
-39 -21z"/>
<path d="M3730 4640 c-11 -11 -20 -28 -20 -39 0 -10 9 -30 20 -44 11 -14 20
-38 20 -54 0 -24 30 -57 193 -214 105 -101 218 -209 250 -238 59 -55 68 -79
41 -101 -43 -37 -36 -104 12 -116 79 -20 122 64 60 116 -9 7 -16 27 -16 45 0
35 23 11 -317 334 -178 169 -195 193 -153 219 26 16 27 73 2 95 -25 23 -68 21
-92 -3z"/>
<path d="M1581 4561 c-12 -12 -21 -29 -21 -40 0 -28 39 -71 64 -71 27 0 66 27
66 46 0 11 16 14 73 14 96 -1 117 -17 117 -92 0 -30 -5 -59 -11 -65 -6 -6 -8
-16 -5 -22 9 -14 36 -2 36 15 0 8 7 17 15 20 11 5 15 22 15 69 0 61 -1 64 -37
91 -33 25 -50 30 -128 36 -49 4 -106 10 -127 13 -29 6 -40 3 -57 -14z"/>
<path d="M5020 4523 c-42 -15 -54 -78 -20 -108 11 -10 23 -34 26 -54 4 -20 21
-53 38 -73 l31 -38 122 0 122 0 20 29 c22 30 28 81 11 81 -5 0 -10 -11 -10
-25 0 -14 -5 -25 -11 -25 -5 0 -7 5 -4 10 3 6 2 10 -4 10 -5 0 -14 -7 -19 -16
-7 -13 -25 -15 -113 -11 -158 7 -164 9 -167 35 -2 13 3 25 12 28 9 3 16 12 16
19 0 6 9 20 20 30 25 22 26 67 3 87 -22 19 -53 28 -73 21z"/>
<path d="M6642 4520 c-20 -9 -42 -45 -42 -71 0 -5 10 -20 23 -33 52 -53 60
-106 14 -106 -13 0 -28 -5 -33 -10 -6 -6 -83 -10 -195 -10 l-184 0 -42 -48
c-31 -34 -43 -56 -43 -78 0 -18 -8 -38 -20 -49 -24 -22 -26 -53 -4 -83 19 -28
74 -30 97 -4 24 26 22 79 -3 94 -29 19 -24 53 13 87 l32 31 180 0 179 0 37 36
c22 22 35 42 32 51 -6 14 11 55 33 83 23 29 26 65 7 87 -22 26 -51 34 -81 23z"/>
<path d="M3479 4303 c-2 -33 2 -48 22 -69 17 -19 19 -37 19 -217 0 -219 7
-193 -82 -284 l-32 -33 -166 0 -166 0 -57 43 c-61 46 -68 63 -36 90 28 25 22
74 -12 100 -24 17 -30 18 -55 6 -43 -21 -53 -61 -26 -99 12 -16 22 -39 22 -52
1 -16 21 -39 68 -75 l67 -53 197 0 196 0 66 73 66 72 0 208 c0 194 1 208 20
227 29 29 25 93 -5 72 -6 -4 -10 -18 -10 -32 0 -18 -6 -26 -23 -28 -30 -4 -54
15 -50 41 2 11 -3 22 -9 24 -7 3 -14 -4 -14 -14z"/>
<path d="M2675 4285 c-30 -29 -32 -55 -7 -86 25 -30 78 -31 103 -1 17 21 24
22 211 22 l193 0 63 -69 c59 -66 62 -72 62 -120 0 -38 -5 -56 -20 -71 -43 -43
-14 -110 47 -110 57 0 85 71 43 107 -16 14 -20 30 -20 83 l-1 65 -77 83 -77
82 -204 0 c-188 0 -205 1 -228 20 -34 27 -59 25 -88 -5z"/>
<path d="M5401 4243 c-50 -41 -71 -65 -71 -80 0 -13 -9 -32 -20 -43 -43 -43
-14 -110 48 -110 56 0 82 70 42 110 -11 11 -20 26 -19 33 0 6 23 31 52 55 l51
42 172 0 172 0 56 -61 56 -62 0 -197 c0 -166 -2 -200 -16 -210 -8 -8 -19 -21
-25 -31 -8 -15 -6 -17 8 -12 10 4 24 13 31 20 17 17 27 16 46 -2 16 -16 36
-20 36 -7 0 5 -9 17 -20 27 -19 17 -20 31 -20 230 l0 213 -66 71 -66 71 -188
0 -188 0 -71 -57z"/>
<path d="M5070 4150 c-39 -39 -11 -110 44 -110 38 0 51 -26 47 -93 l-3 -60 93
-93 c52 -52 99 -94 106 -94 7 0 12 -5 11 -12 -2 -8 8 -11 30 -9 27 2 35 -1 39
-18 3 -11 9 -18 14 -15 5 3 3 13 -3 24 -10 16 -2 27 65 90 l77 72 0 85 c0 70
4 89 20 110 26 33 25 63 0 91 -40 43 -110 14 -110 -46 0 -16 9 -37 20 -47 17
-15 20 -31 20 -95 l0 -78 -67 -61 c-38 -34 -72 -62 -77 -63 -5 -1 -49 39 -98
88 l-89 89 4 62 c4 52 1 65 -14 79 -12 11 -19 31 -19 54 0 64 -66 94 -110 50z"/>
<path d="M3860 4120 c-11 -11 -20 -32 -20 -48 0 -21 -18 -45 -75 -102 l-76
-75 3 -150 c3 -143 2 -152 -19 -179 -28 -35 -29 -57 -5 -87 24 -28 76 -30 97
-3 21 27 18 71 -5 94 -18 18 -20 33 -20 163 l0 143 68 67 c54 53 74 67 98 67
39 0 64 27 64 68 0 56 -70 82 -110 42z"/>
<path d="M6320 4118 c-25 -28 -26 -62 0 -88 17 -17 20 -33 20 -124 l0 -104
-152 -146 -151 -146 -131 1 -131 1 -33 38 c-40 47 -35 62 17 54 22 -4 41 -2
45 4 7 12 -22 25 -36 16 -6 -4 -14 0 -19 7 -6 10 -9 11 -9 2 0 -15 -32 -17
-45 -4 -6 6 -19 3 -34 -8 -28 -21 -26 -25 51 -110 l47 -51 149 0 150 0 166
161 166 161 0 113 c0 99 2 114 20 130 41 37 11 115 -45 115 -13 0 -33 -10 -45
-22z"/>
<path d="M4440 4100 c-11 -11 -20 -33 -20 -50 0 -18 8 -37 20 -47 16 -14 20
-30 20 -84 0 -66 1 -68 39 -98 36 -29 45 -31 118 -31 50 0 91 -5 109 -15 38
-19 71 -9 89 26 40 76 -64 135 -111 64 -15 -22 -23 -25 -83 -25 -93 0 -111 14
-111 89 0 45 4 62 20 76 29 26 26 69 -6 94 -33 26 -58 27 -84 1z"/>
<path d="M1031 4043 c-24 -29 -20 -58 10 -85 15 -13 19 -30 19 -83 l0 -67 -61
-63 c-39 -41 -56 -65 -47 -68 8 -4 7 -6 -4 -6 -11 -1 -18 -9 -18 -21 0 -26 26
-26 33 0 3 11 16 24 29 29 12 5 44 32 71 60 l47 52 0 75 c0 61 4 81 20 101 26
33 25 55 -3 81 -32 30 -71 28 -96 -5z"/>
<path d="M2114 4062 c-19 -12 -35 -52 -29 -71 3 -10 14 -26 25 -36 13 -12 20
-31 20 -54 0 -31 8 -45 49 -85 l50 -49 143 7 143 6 43 -50 c33 -38 50 -50 72
-50 15 0 31 -6 33 -12 4 -10 6 -10 6 0 1 7 -19 34 -42 60 -24 26 -54 59 -67
75 l-24 27 -144 -6 -143 -7 -40 38 c-43 43 -49 73 -19 100 27 24 33 50 19 77
-15 30 -28 38 -59 38 -14 0 -30 -4 -36 -8z"/>
<path d="M1507 4042 c-23 -25 -21 -64 3 -95 12 -15 20 -40 20 -64 0 -34 -9
-47 -85 -125 l-85 -88 -119 0 -118 0 5 -25 4 -25 125 0 124 0 99 103 99 102 1
53 c0 38 5 57 20 72 40 40 18 98 -41 106 -26 4 -39 0 -52 -14z"/>
<path d="M4000 3920 c-11 -11 -20 -33 -20 -48 0 -16 9 -37 20 -47 15 -13 20
-31 20 -65 0 -51 21 -80 58 -80 12 0 23 -8 27 -20 3 -11 11 -20 16 -20 12 0
12 13 -1 26 -7 7 -1 11 20 11 21 0 27 -4 20 -11 -15 -15 -12 -26 9 -26 10 0
21 9 24 20 3 13 13 20 29 20 20 -1 21 -2 6 -11 -24 -13 -23 -29 2 -29 11 0 19
3 19 8 -4 23 4 32 26 32 18 0 25 -5 25 -20 0 -11 5 -20 10 -20 6 0 10 9 10 20
0 17 7 20 40 20 27 0 43 -5 47 -15 3 -9 34 -43 69 -77 l64 -61 0 -70 c0 -54
-4 -74 -21 -95 -14 -18 -18 -34 -14 -51 14 -55 80 -69 114 -24 24 29 21 55
-10 89 -15 16 -19 36 -19 95 l0 75 -73 72 -72 72 -161 0 c-148 0 -163 2 -188
21 -33 26 -37 86 -6 114 20 18 26 60 12 81 -10 15 -47 34 -66 34 -9 0 -25 -9
-36 -20z"/>
<path d="M1982 3847 c-27 -29 -28 -62 -2 -84 12 -11 20 -30 20 -50 0 -24 4
-33 17 -33 15 0 14 -2 -3 -15 -19 -15 -19 -15 0 -30 19 -15 19 -15 -1 -15 -12
0 -23 4 -25 10 -1 5 -37 -23 -78 -63 -41 -40 -111 -106 -155 -147 -182 -167
-225 -212 -225 -234 0 -13 -11 -33 -25 -46 -45 -42 -28 -102 31 -113 24 -5 36
-1 53 17 26 28 27 56 2 87 -12 16 -16 31 -11 44 4 12 72 81 151 155 318 295
302 278 310 343 5 40 14 66 29 82 27 29 29 69 5 95 -24 27 -67 25 -93 -3z"/>
<path d="M4673 3623 c-19 -13 -23 -25 -23 -73 l0 -58 233 -236 c208 -212 235
-235 257 -229 23 6 24 5 11 -11 -13 -16 -9 -31 10 -31 5 0 9 -4 9 -10 0 -5 80
-90 177 -187 l178 -178 360 0 360 0 183 183 c100 100 182 185 182 188 0 4 -12
9 -26 12 -18 3 -24 1 -20 -9 3 -9 -1 -14 -12 -14 -9 0 -87 -70 -172 -155
l-155 -155 -341 0 -340 0 -154 155 c-109 109 -161 155 -177 155 -16 0 -25 8
-30 29 -5 18 -95 117 -245 271 -228 232 -238 245 -238 281 l0 39 235 0 234 0
31 -30 c32 -32 39 -64 15 -74 -26 -10 -37 -54 -20 -85 26 -52 99 -45 119 11 8
23 6 33 -12 58 -12 16 -22 42 -22 57 0 21 -12 39 -47 70 l-48 42 -245 0 c-206
0 -249 -3 -267 -16z"/>
<path d="M5430 3620 c0 -5 16 -22 35 -37 29 -23 34 -33 30 -54 -9 -39 29 -81
68 -77 37 4 72 46 62 77 -10 32 -33 51 -63 51 -14 0 -35 8 -46 19 -23 20 -86
36 -86 21z"/>
<path d="M3355 3570 c-13 -14 -16 -29 -12 -55 l6 -35 -130 0 -130 0 -60 -57
c-56 -54 -59 -58 -59 -105 0 -35 -6 -58 -20 -75 -11 -14 -20 -34 -20 -45 0
-25 44 -68 70 -68 29 0 60 35 60 68 0 16 -9 37 -20 47 -14 13 -20 31 -20 60 0
37 5 47 45 84 l45 41 142 0 143 0 143 -141 c91 -91 142 -149 142 -162 0 -11
-10 -31 -21 -43 -17 -18 -20 -29 -14 -51 l8 -28 13 32 c7 17 18 34 24 38 20
12 48 -6 54 -35 3 -17 10 -30 16 -30 18 0 11 53 -10 75 -10 11 -20 36 -22 55
-2 31 -20 53 -147 176 -144 140 -145 141 -128 165 22 31 22 72 -1 92 -25 23
-75 21 -97 -3z"/>
<path d="M4047 3562 c-23 -25 -21 -75 3 -97 17 -15 20 -31 20 -104 0 -75 -3
-89 -21 -104 -30 -27 -23 -86 14 -107 24 -13 30 -13 54 0 42 24 52 63 25 100
-19 25 -22 42 -22 115 0 72 3 88 20 105 11 11 20 31 20 45 0 55 -77 87 -113
47z"/>
<path d="M5015 3488 c-11 -6 -23 -16 -27 -22 -14 -21 -8 -63 12 -81 15 -14 20
-31 20 -68 l0 -50 121 -116 c67 -64 127 -117 134 -119 7 -2 17 -13 23 -25 l11
-22 0 22 c1 12 6 23 12 25 5 2 -49 61 -120 132 -118 116 -131 131 -131 163 0
20 9 46 20 60 27 35 25 67 -6 92 -30 24 -41 25 -69 9z"/>
<path d="M6625 3475 c-32 -31 -32 -60 0 -89 19 -18 25 -33 25 -67 0 -41 -4
-47 -64 -101 l-65 -58 -359 0 -359 0 -27 -40 c-14 -22 -26 -52 -26 -68 0 -15
-9 -35 -20 -45 -46 -39 -15 -117 45 -117 26 0 65 43 65 71 0 11 -9 28 -20 39
-25 25 -26 72 -2 93 17 15 57 17 370 17 l351 0 75 66 76 66 0 63 c0 51 4 65
20 76 33 24 36 64 6 93 -32 33 -60 33 -91 1z"/>
<path d="M4360 3483 c-50 -19 -66 -75 -30 -108 17 -15 20 -31 20 -97 l0 -79
93 -97 c113 -119 116 -121 147 -122 20 0 26 5 28 25 1 18 -3 25 -16 25 -9 0
-59 42 -110 93 l-92 92 0 68 c0 54 4 71 20 87 29 29 26 74 -6 99 -28 22 -30
23 -54 14z"/>
<path d="M2122 3440 c-27 -26 -28 -64 -2 -90 16 -16 20 -33 20 -86 0 -55 -4
-71 -26 -100 l-26 -34 -127 0 -127 0 -44 -45 c-34 -35 -45 -54 -45 -78 0 -30
-3 -32 -34 -33 -37 0 -71 -32 -71 -65 0 -10 -7 -19 -15 -19 -8 0 -21 -13 -30
-29 -20 -39 -7 -74 34 -91 26 -10 35 -10 56 4 33 22 42 59 21 91 -23 35 -20
47 18 85 19 18 36 42 38 54 2 13 12 22 24 24 12 2 32 14 45 28 22 23 28 24
150 24 l127 0 41 51 c39 50 41 54 41 124 0 59 4 75 20 90 28 25 27 79 -2 99
-30 22 -60 20 -86 -4z"/>
<path d="M2627 3432 c-23 -25 -21 -75 3 -97 15 -13 20 -31 20 -64 0 -45 3 -50
78 -124 43 -43 82 -74 86 -70 4 4 6 4 4 -2 -2 -9 116 -128 327 -328 l70 -67
154 0 154 0 43 48 c35 37 43 55 44 85 0 23 7 44 20 57 26 26 25 56 -3 84 -17
17 -31 22 -55 18 -57 -8 -75 -55 -37 -100 32 -38 32 -65 -2 -108 l-28 -34
-136 0 c-123 0 -138 2 -154 20 -10 11 -22 17 -27 14 -4 -3 -7 -2 -6 3 2 4 -56
64 -127 133 -372 359 -355 340 -355 382 0 25 7 45 20 58 26 26 25 60 0 88 -25
27 -71 29 -93 4z"/>
<path d="M5506 3389 c-31 -25 -33 -57 -6 -92 16 -21 20 -40 20 -111 0 -73 -3
-89 -20 -106 -11 -11 -20 -31 -20 -45 0 -14 9 -34 20 -45 41 -41 110 -10 110
48 0 16 -9 37 -20 47 -17 15 -20 31 -20 104 0 74 3 89 20 104 27 23 26 71 -2
97 -28 25 -48 25 -82 -1z"/>
<path d="M5740 3343 c-42 -15 -54 -78 -20 -108 26 -24 70 -22 91 4 17 20 25
21 219 21 187 0 204 -2 227 -20 14 -11 36 -20 49 -20 30 0 64 33 64 63 0 61
-75 91 -115 47 -17 -19 -31 -20 -222 -20 -190 0 -207 1 -230 20 -26 20 -36 23
-63 13z"/>
<path d="M2430 3140 c-11 -11 -20 -33 -20 -48 0 -16 9 -37 20 -47 14 -13 20
-31 20 -60 0 -35 7 -50 41 -89 l41 -46 152 0 153 0 29 -33 c70 -79 67 -74 56
-107 -14 -40 2 -78 36 -87 63 -16 111 41 78 92 -9 14 -28 30 -42 35 -13 5 -24
14 -24 20 0 7 -25 38 -57 71 l-56 59 -150 0 c-150 0 -151 0 -179 27 -35 33
-39 90 -8 118 41 37 11 115 -45 115 -14 0 -34 -9 -45 -20z"/>
<path d="M4170 3090 c-11 -11 -20 -33 -20 -48 0 -16 9 -37 20 -47 13 -12 20
-31 20 -54 0 -29 9 -44 51 -87 l50 -51 147 4 147 4 49 -56 c37 -42 46 -59 37
-68 -20 -20 -13 -64 15 -86 15 -12 32 -21 39 -21 26 0 65 41 65 69 0 28 -31
70 -53 72 -7 0 -39 32 -72 70 l-60 70 -146 -4 -146 -4 -36 34 c-43 38 -48 71
-17 110 26 34 25 65 -3 91 -29 27 -61 28 -87 2z"/>
<path d="M4924 2998 c2 -15 0 -29 -5 -30 -4 -2 31 -47 78 -101 65 -74 83 -101
75 -109 -18 -18 -14 -73 6 -91 27 -25 78 -22 96 5 23 33 20 57 -12 86 -24 23
-59 63 -182 205 -13 15 -29 27 -36 27 -7 0 -15 8 -18 18 -3 9 -4 5 -2 -10z"/>
<path d="M5328 3014 c-15 -14 -8 -43 13 -57 11 -8 69 -62 129 -121 l108 -106
160 0 160 0 41 46 c31 36 41 55 41 81 0 20 9 46 20 60 24 31 25 51 4 81 -10
15 -25 22 -48 22 -62 0 -90 -68 -47 -114 30 -32 27 -67 -12 -104 l-33 -32
-130 0 -129 0 -100 100 c-55 55 -105 100 -111 100 -6 0 -16 10 -22 23 l-11 22
0 -22 c-1 -32 -19 -29 -23 3 -2 14 -6 22 -10 18z"/>
<path d="M5898 2520 c-11 -17 -24 -20 -91 -20 l-78 0 -78 -75 c-58 -57 -77
-82 -79 -105 -1 -17 3 -30 9 -30 6 0 9 7 5 15 -4 10 1 15 14 15 15 0 20 7 20
25 0 14 5 25 10 25 6 0 10 -5 10 -11 0 -7 24 11 54 40 55 51 55 51 120 51 53
0 70 -4 86 -20 11 -11 31 -20 45 -20 55 0 87 77 47 113 -26 24 -79 22 -94 -3z"/>
</g>
</svg>
