<?xml version="1.0" encoding="utf-8"?>
<!-- Generator: Adobe Illustrator 19.2.1, SVG Export Plug-In . SVG Version: 6.00 Build 0)  -->
<svg version="1.1" id="Layer_1" xmlns="http://www.w3.org/2000/svg" xmlns:xlink="http://www.w3.org/1999/xlink" x="0px" y="0px"
	 viewBox="0 0 300 325.2" style="enable-background:new 0 0 300 325.2;" xml:space="preserve">
<style type="text/css">
	.st0{fill:#FF290C;}
	.st1{fill:#000000;}
	.st2{fill:#ffffff;}
	.st3{fill:none;stroke:#000000;stroke-width:5;}
</style>
<g>
	<path class="st0" d="M149.4,28.8c-4.2-14.6-17.6-25.4-33.6-25.4c-17.6,0-32.2,13.2-34.6,30.2c-18.4,1-32.8,16.2-32.8,34.8
		c0,0,0,0,0,0.2c-18.2,1.2-32.6,16.2-32.6,34.8c0,9.4,3.8,17.8,9.8,24.2c-8.8,6.4-14.4,16.6-14.4,28.2c0,9.6,3.8,18.2,10,24.4
		c-10.8,6-18,17.4-18,30.6c0,11.6,5.6,21.8,14.4,28.2c-2.6,4.8-4,10.2-4,16c0,17.4,12.8,31.8,29.6,34.4c3.8,15,17.6,26.4,34,26.4
		c5.4,0,10.4-1.2,15-3.4c6.2,5.8,14.6,9.4,23.8,9.4c16,0,29.4-10.8,33.6-25.4V28.8H149.4z"/>
</g>
<g>
	<path class="st1" d="M116,325.2c-9,0-17.6-3.2-24.4-8.8c-4.6,1.8-9.4,2.8-14.4,2.8c-17,0-31.6-11-36.6-27
		c-17.6-3.8-30.2-19-30.2-37.4c0-5.2,1-10.4,3.2-15.2C5,232.4,0,221.6,0,210.4c0-12.6,6.2-24.2,16.2-31.2c-5.4-6.8-8.2-15-8.2-23.6
		c0-11,4.8-21.4,13-28.6c-5.4-6.8-8.2-15-8.2-23.6c0-19,14-35,32.6-37.8c1.4-18,15.2-32.6,33.2-35c0.6-3,1.6-5.8,2.8-8.4
		C86.6,9.2,99.4,0,114.2,0v0.2c0.6,0,1.2,0,1.8,0c17,0,32.2,11.4,36.8,27.8l0.2,0.4v268.4l-0.2,0.4C148.2,313.6,133,325.2,116,325.2
		z M92.8,308.2l1.6,1.6c5.8,5.6,13.6,8.6,21.6,8.6c13.8,0,26.2-9.2,30.2-22.6V29.2C142.2,16,130,6.8,116,6.8
		c-12.4,0-23.4,7.2-28.4,18c-1.2,3.2-2,6.6-2,10.4h-1L84.4,37l-2.8,0.2C65,38.2,52,51.8,52,68.6v0.2V72l-3.2-0.2
		c-16.4,1-29.4,14.8-29.4,31.4c0,8.2,3.2,15.8,8.8,21.8l2.8,2.8l-3.2,2.2c-8.2,6-13,15.4-13,25.4c0,8.4,3.2,16.2,9,22l3,3.2
		l-3.8,2.2C13,188.4,6.6,199,6.6,210.4c0,10,4.8,19.6,13,25.4l2.4,1.8l-1.4,2.6c-2.4,4.6-3.6,9.4-3.6,14.6c0,15.6,11.2,28.8,26.6,31
		l2.2,0.4l0.6,2.2c3.4,14.2,16,24,30.6,24c4.8,0,9.2-1,13.6-3.2L92.8,308.2z"/>
</g>
<g>
	<path class="st1" d="M80.8,245.8c-1.8,0-3.4-1.6-3.4-3.4v-24.8l-30-19.8c-1-0.6-1.6-1.6-1.6-2.8V69.6c0-1.8,1.6-3.4,3.4-3.4
		s3.4,1.6,3.4,3.4v123.6l30,19.8c1,0.6,1.6,1.6,1.6,2.8v26.8C84,244.4,82.6,245.8,80.8,245.8z M114.2,173.6c-1.8,0-3.4-1.6-3.4-3.4
		v-45l-30-19.8c-1-0.6-1.6-1.6-1.6-2.8v-73c0-1.8,1.6-3.4,3.4-3.4c1.8,0,3.4,1.6,3.4,3.4v71.2l30,19.8c1,0.6,1.6,1.6,1.6,2.8v47
		C117.6,172.2,116,173.6,114.2,173.6z"/>
</g>
<g>
	<path class="st2" d="M150.6,28.8c4.2-14.6,17.6-25.4,33.6-25.4c17.6,0,32.2,13.2,34.6,30.2c18.4,1,32.8,16.2,32.8,34.8
		c0,0,0,0,0,0.2c18.2,1.2,32.6,16.2,32.6,34.8c0,9.4-3.8,17.8-9.8,24.2c8.8,6.4,14.4,16.6,14.4,28.2c0,9.6-3.8,18.2-10,24.4
		c10.8,6,18,17.4,18,30.6c0,11.6-5.6,21.8-14.4,28.2c2.6,4.8,4,10.2,4,16c0,17.4-12.8,31.8-29.6,34.4C253,304.6,239.4,316,223,316
		c-5.4,0-10.4-1.2-15-3.4c-6.2,5.8-14.6,9.4-23.8,9.4c-16,0-29.4-10.8-33.6-25.4L150.6,28.8L150.6,28.8z"/>
</g>
<g>
	<path class="st1" d="M184,325.2c-17,0-32.2-11.4-36.8-27.8L147,297V28.2l0.2-0.4C151.8,11.4,167,0,184,0c18.2,0,33.8,13,37.4,30.6
		c18,2.2,31.8,17,33.2,35c18.6,2.8,32.6,18.8,32.6,37.8c0,8.6-3,17-8.2,23.6c8.2,7.2,13,17.6,13,28.6c0,8.6-2.8,17-8.2,23.6
		C294,186.4,300,198,300,210.4c0,11.2-5,21.8-13.6,29.2c2,4.8,3.2,9.8,3.2,15.2c0,18.2-12.6,33.6-30.2,37.4c-4.8,16-19.6,27-36.6,27
		c-5,0-9.8-1-14.4-2.8C201.6,322,193,325.2,184,325.2z M154,295.8c4,13.2,16.2,22.6,30.2,22.6c8,0,15.6-3,21.6-8.6l1.6-1.6l2,1
		c4.4,2,8.8,3.2,13.6,3.2c14.6,0,27.2-9.8,30.6-24l0.6-2.2l2.2-0.4c15.4-2.4,26.6-15.4,26.6-31c0-5.2-1.2-10-3.6-14.6l-1.4-2.6
		l2.4-1.8c8.2-6,13-15.4,13-25.4c0-11.4-6.2-22-16.4-27.6l-3.8-2.2l3-3.2c5.8-6,9-13.8,9-22c0-10-4.8-19.6-13-25.4l-3-2.2l2.6-2.8
		c5.6-6,8.8-13.6,8.8-21.8c0-16.6-13-30.2-29.4-31.4l-3.2-0.2v-3.4c0-16.6-13-30.4-29.6-31.4l-2.8-0.2l-0.4-2.8
		c-2-15.6-15.4-27.4-31.2-27.4c-13.8,0-26.2,9.2-30.2,22.4v267H154z"/>
</g>
<g>
	<path class="st1" d="M80.6,285.2c-0.2,0-0.6,0-0.8,0c-1.8-0.4-3-2.2-2.6-4l0.2-0.6c0.4-1.8,2.2-3,4-2.6s3,2.2,2.6,4l-0.2,0.6
		C83.4,284.2,82,285.2,80.6,285.2z M80.6,270.6L80.6,270.6c-1.8,0-3.4-1.6-3.4-3.4l0.2-10.8c0-1.8,1.6-3.4,3.4-3.4l0,0
		c1.8,0,3.4,1.6,3.4,3.4L84,267.2C83.8,269.2,82.4,270.6,80.6,270.6z M250.2,269.8c-0.2,0-0.6,0-0.8,0c-1.8-0.4-3-2.2-2.6-4l0.2-0.6
		c0.4-1.8,2.2-3,4-2.6c1.8,0.4,3,2.2,2.6,4l-0.2,0.6C253.2,268.8,251.8,269.8,250.2,269.8z M250.2,255.4L250.2,255.4
		c-2,0-3.4-1.6-3.4-3.4l0.2-10.8c0-1.8,1.6-3.4,3.4-3.4s3.4,1.6,3.4,3.4l-0.2,10.8C253.6,254,252.2,255.4,250.2,255.4z M250.2,230
		L250.2,230c-1.8,0-3.4-1.6-3.4-3.4L247,59.8c0-1.8,1.6-3.4,3.4-3.4l0,0c1.8,0,3.4,1.6,3.4,3.4l-0.2,166.8
		C253.6,228.4,252.2,230,250.2,230z M114,212c-0.2,0-0.6,0-0.8,0c-1.8-0.4-3-2.2-2.6-4l0.2-0.6c0.4-1.8,2.2-3,4-2.6
		c1.8,0.4,3,2.2,2.6,4l-0.2,0.6C117,210.8,115.6,212,114,212z M114,197.4L114,197.4c-1.8,0-3.4-1.6-3.4-3.4l0.2-10.8
		c0-1.8,1.6-3.4,3.4-3.4l0,0c1.8,0,3.4,1.6,3.4,3.4l-0.2,10.8C117.4,196,115.8,197.4,114,197.4z M193.2,103.8L193.2,103.8
		c-1.8,0-3.4-1.6-3.4-3.4l0.2-10.8c0-1.8,1.6-3.4,3.4-3.4l0,0c1.8,0,3.4,1.6,3.4,3.4l-0.2,10.8C196.4,102.2,195,103.8,193.2,103.8z
		 M193.2,79.2c-0.2,0-0.4,0-0.8,0c-1.8-0.4-3-2.2-2.6-4l0.2-0.6c0.4-1.8,2.2-3,4-2.6s3,2.2,2.6,4l-0.2,0.6
		C196,78.2,194.6,79.2,193.2,79.2z"/>
</g>
<g>
	<rect x="213.2" y="175" class="st1" width="6.8" height="115.8"/>
</g>
<g>
	<path class="st1" d="M216.6,178.4c-0.8,0-1.6-0.2-2.2-0.8l-23.2-19.8c-0.8-0.6-1.2-1.6-1.2-2.6l-0.2-39.6c0-1.8,1.4-3.4,3.4-3.4
		l0,0c1.8,0,3.4,1.4,3.4,3.4l0.2,38l22,18.8c1.4,1.2,1.6,3.4,0.4,4.8C218.4,178,217.4,178.4,216.6,178.4z"/>
</g>
<path class="st3" d="M216.6,289.8c0,17.6-14.2,31.8-31.8,31.8"/>
</svg>
